<mxfile host="app.diagrams.net" agent="Mozilla/5.0 (Windows NT 10.0; Win64; x64) AppleWebKit/537.36 (KHTML, like Gecko) Chrome/132.0.0.0 Safari/537.36" version="26.0.15">
  <diagram name="Strona-1" id="ENjH9ldMsQfYz-gzCj0z">
    <mxGraphModel dx="2074" dy="1098" grid="1" gridSize="10" guides="1" tooltips="1" connect="1" arrows="1" fold="1" page="1" pageScale="1" pageWidth="827" pageHeight="1169" math="0" shadow="0">
      <root>
        <mxCell id="0" />
        <mxCell id="1" parent="0" />
        <mxCell id="HB6XJpnRp5nRYdGUK973-7" style="edgeStyle=orthogonalEdgeStyle;rounded=0;orthogonalLoop=1;jettySize=auto;html=1;" edge="1" parent="1" source="HB6XJpnRp5nRYdGUK973-1" target="HB6XJpnRp5nRYdGUK973-6">
          <mxGeometry relative="1" as="geometry" />
        </mxCell>
        <mxCell id="HB6XJpnRp5nRYdGUK973-1" value="&lt;font style=&quot;font-size: 15px;&quot;&gt;Kontrahent&lt;/font&gt;" style="rounded=1;whiteSpace=wrap;html=1;" vertex="1" parent="1">
          <mxGeometry x="250" y="240" width="170" height="70" as="geometry" />
        </mxCell>
        <mxCell id="HB6XJpnRp5nRYdGUK973-9" value="" style="edgeStyle=orthogonalEdgeStyle;rounded=0;orthogonalLoop=1;jettySize=auto;html=1;" edge="1" parent="1" source="HB6XJpnRp5nRYdGUK973-6" target="HB6XJpnRp5nRYdGUK973-8">
          <mxGeometry relative="1" as="geometry" />
        </mxCell>
        <mxCell id="HB6XJpnRp5nRYdGUK973-11" value="TAK" style="edgeLabel;html=1;align=center;verticalAlign=middle;resizable=0;points=[];fontSize=15;" vertex="1" connectable="0" parent="HB6XJpnRp5nRYdGUK973-9">
          <mxGeometry x="0.0667" y="2" relative="1" as="geometry">
            <mxPoint x="-66" y="2" as="offset" />
          </mxGeometry>
        </mxCell>
        <mxCell id="HB6XJpnRp5nRYdGUK973-46" style="edgeStyle=orthogonalEdgeStyle;rounded=0;orthogonalLoop=1;jettySize=auto;html=1;entryX=0;entryY=0.5;entryDx=0;entryDy=0;" edge="1" parent="1" source="HB6XJpnRp5nRYdGUK973-6" target="HB6XJpnRp5nRYdGUK973-31">
          <mxGeometry relative="1" as="geometry">
            <Array as="points">
              <mxPoint x="170" y="425" />
              <mxPoint x="170" y="565" />
            </Array>
          </mxGeometry>
        </mxCell>
        <mxCell id="HB6XJpnRp5nRYdGUK973-47" value="NIE" style="edgeLabel;html=1;align=center;verticalAlign=middle;resizable=0;points=[];fontSize=15;" vertex="1" connectable="0" parent="HB6XJpnRp5nRYdGUK973-46">
          <mxGeometry x="0.0289" y="-2" relative="1" as="geometry">
            <mxPoint as="offset" />
          </mxGeometry>
        </mxCell>
        <mxCell id="HB6XJpnRp5nRYdGUK973-6" value="&lt;font style=&quot;font-size: 15px;&quot;&gt;&amp;nbsp;Zastępowalność inna niż standardowa&lt;/font&gt;" style="rhombus;whiteSpace=wrap;html=1;" vertex="1" parent="1">
          <mxGeometry x="215" y="360" width="240" height="130" as="geometry" />
        </mxCell>
        <mxCell id="HB6XJpnRp5nRYdGUK973-10" style="edgeStyle=orthogonalEdgeStyle;rounded=0;orthogonalLoop=1;jettySize=auto;html=1;" edge="1" parent="1" source="HB6XJpnRp5nRYdGUK973-8" target="HB6XJpnRp5nRYdGUK973-1">
          <mxGeometry relative="1" as="geometry" />
        </mxCell>
        <mxCell id="HB6XJpnRp5nRYdGUK973-8" value="&lt;font style=&quot;font-size: 15px;&quot;&gt;Bierzemy konfigurację z kontrahenta&lt;/font&gt;" style="whiteSpace=wrap;html=1;" vertex="1" parent="1">
          <mxGeometry x="515" y="245" width="170" height="60" as="geometry" />
        </mxCell>
        <mxCell id="HB6XJpnRp5nRYdGUK973-30" style="edgeStyle=orthogonalEdgeStyle;rounded=0;orthogonalLoop=1;jettySize=auto;html=1;" edge="1" parent="1" source="HB6XJpnRp5nRYdGUK973-31" target="HB6XJpnRp5nRYdGUK973-34">
          <mxGeometry relative="1" as="geometry" />
        </mxCell>
        <mxCell id="HB6XJpnRp5nRYdGUK973-31" value="&lt;font style=&quot;font-size: 15px;&quot;&gt;Kontrakt&lt;/font&gt;" style="rounded=1;whiteSpace=wrap;html=1;" vertex="1" parent="1">
          <mxGeometry x="250" y="530" width="170" height="70" as="geometry" />
        </mxCell>
        <mxCell id="HB6XJpnRp5nRYdGUK973-32" value="" style="edgeStyle=orthogonalEdgeStyle;rounded=0;orthogonalLoop=1;jettySize=auto;html=1;" edge="1" parent="1" source="HB6XJpnRp5nRYdGUK973-34" target="HB6XJpnRp5nRYdGUK973-36">
          <mxGeometry relative="1" as="geometry" />
        </mxCell>
        <mxCell id="HB6XJpnRp5nRYdGUK973-33" value="TAK" style="edgeLabel;html=1;align=center;verticalAlign=middle;resizable=0;points=[];fontSize=15;" vertex="1" connectable="0" parent="HB6XJpnRp5nRYdGUK973-32">
          <mxGeometry x="0.0667" y="2" relative="1" as="geometry">
            <mxPoint x="-66" y="2" as="offset" />
          </mxGeometry>
        </mxCell>
        <mxCell id="HB6XJpnRp5nRYdGUK973-44" style="edgeStyle=orthogonalEdgeStyle;rounded=0;orthogonalLoop=1;jettySize=auto;html=1;entryX=0;entryY=0.5;entryDx=0;entryDy=0;" edge="1" parent="1" source="HB6XJpnRp5nRYdGUK973-34" target="HB6XJpnRp5nRYdGUK973-38">
          <mxGeometry relative="1" as="geometry">
            <Array as="points">
              <mxPoint x="170" y="715" />
              <mxPoint x="170" y="855" />
            </Array>
          </mxGeometry>
        </mxCell>
        <mxCell id="HB6XJpnRp5nRYdGUK973-45" value="NIE" style="edgeLabel;html=1;align=center;verticalAlign=middle;resizable=0;points=[];fontSize=15;" vertex="1" connectable="0" parent="HB6XJpnRp5nRYdGUK973-44">
          <mxGeometry x="-0.1597" y="-2" relative="1" as="geometry">
            <mxPoint as="offset" />
          </mxGeometry>
        </mxCell>
        <mxCell id="HB6XJpnRp5nRYdGUK973-34" value="&lt;font style=&quot;font-size: 15px;&quot;&gt;&amp;nbsp;Zastępowalność inna niż standardowa&lt;/font&gt;" style="rhombus;whiteSpace=wrap;html=1;" vertex="1" parent="1">
          <mxGeometry x="215" y="650" width="240" height="130" as="geometry" />
        </mxCell>
        <mxCell id="HB6XJpnRp5nRYdGUK973-35" style="edgeStyle=orthogonalEdgeStyle;rounded=0;orthogonalLoop=1;jettySize=auto;html=1;" edge="1" parent="1" source="HB6XJpnRp5nRYdGUK973-36" target="HB6XJpnRp5nRYdGUK973-31">
          <mxGeometry relative="1" as="geometry" />
        </mxCell>
        <mxCell id="HB6XJpnRp5nRYdGUK973-36" value="&lt;font style=&quot;font-size: 15px;&quot;&gt;Bierzemy konfigurację z Kontraktu&lt;/font&gt;" style="whiteSpace=wrap;html=1;" vertex="1" parent="1">
          <mxGeometry x="515" y="535" width="170" height="60" as="geometry" />
        </mxCell>
        <mxCell id="HB6XJpnRp5nRYdGUK973-37" style="edgeStyle=orthogonalEdgeStyle;rounded=0;orthogonalLoop=1;jettySize=auto;html=1;" edge="1" parent="1" source="HB6XJpnRp5nRYdGUK973-38" target="HB6XJpnRp5nRYdGUK973-41">
          <mxGeometry relative="1" as="geometry" />
        </mxCell>
        <mxCell id="HB6XJpnRp5nRYdGUK973-38" value="&lt;font style=&quot;font-size: 15px;&quot;&gt;Typ rezerwacji&lt;/font&gt;" style="rounded=1;whiteSpace=wrap;html=1;" vertex="1" parent="1">
          <mxGeometry x="250" y="820" width="170" height="70" as="geometry" />
        </mxCell>
        <mxCell id="HB6XJpnRp5nRYdGUK973-39" value="" style="edgeStyle=orthogonalEdgeStyle;rounded=0;orthogonalLoop=1;jettySize=auto;html=1;" edge="1" parent="1" source="HB6XJpnRp5nRYdGUK973-41" target="HB6XJpnRp5nRYdGUK973-43">
          <mxGeometry relative="1" as="geometry" />
        </mxCell>
        <mxCell id="HB6XJpnRp5nRYdGUK973-40" value="TAK" style="edgeLabel;html=1;align=center;verticalAlign=middle;resizable=0;points=[];fontSize=15;" vertex="1" connectable="0" parent="HB6XJpnRp5nRYdGUK973-39">
          <mxGeometry x="0.0667" y="2" relative="1" as="geometry">
            <mxPoint x="-66" y="2" as="offset" />
          </mxGeometry>
        </mxCell>
        <mxCell id="HB6XJpnRp5nRYdGUK973-41" value="&lt;font style=&quot;font-size: 15px;&quot;&gt;&amp;nbsp;Zastępowalność inna niż standardowa&lt;/font&gt;" style="rhombus;whiteSpace=wrap;html=1;" vertex="1" parent="1">
          <mxGeometry x="215" y="940" width="240" height="130" as="geometry" />
        </mxCell>
        <mxCell id="HB6XJpnRp5nRYdGUK973-42" style="edgeStyle=orthogonalEdgeStyle;rounded=0;orthogonalLoop=1;jettySize=auto;html=1;" edge="1" parent="1" source="HB6XJpnRp5nRYdGUK973-43" target="HB6XJpnRp5nRYdGUK973-38">
          <mxGeometry relative="1" as="geometry" />
        </mxCell>
        <mxCell id="HB6XJpnRp5nRYdGUK973-43" value="&lt;font style=&quot;font-size: 15px;&quot;&gt;Bierzemy konfigurację z Typu rezerwacji&lt;/font&gt;" style="whiteSpace=wrap;html=1;" vertex="1" parent="1">
          <mxGeometry x="515" y="825" width="170" height="60" as="geometry" />
        </mxCell>
      </root>
    </mxGraphModel>
  </diagram>
</mxfile>
